<!-- Create a simple SVG favicon that matches the logo -->
<svg xmlns="http://www.w3.org/2000/svg" viewBox="0 0 32 32" width="32" height="32">
    <defs>
        <linearGradient id="favGradient" x1="0%" y1="0%" x2="100%" y2="100%">
            <stop offset="0%" style="stop-color:#1e3a8a;stop-opacity:1" />
            <stop offset="100%" style="stop-color:#f59e0b;stop-opacity:1" />
        </linearGradient>
    </defs>
    
    <!-- Bus body (scaled down) -->
    <rect x="5" y="10" width="22" height="14" rx="2" ry="2" fill="url(#favGradient)" stroke="#1e3a8a" stroke-width="0.5"/>
    
    <!-- Windows -->
    <rect x="7" y="12" width="3" height="3" rx="0.5" fill="#e5e7eb"/>
    <rect x="11" y="12" width="3" height="3" rx="0.5" fill="#e5e7eb"/>
    <rect x="15" y="12" width="3" height="3" rx="0.5" fill="#e5e7eb"/>
    <rect x="19" y="12" width="3" height="3" rx="0.5" fill="#e5e7eb"/>
    
    <!-- Door -->
    <rect x="23" y="16" width="2" height="6" rx="0.5" fill="#374151"/>
    
    <!-- Wheels -->
    <circle cx="10" cy="26" r="2" fill="#374151"/>
    <circle cx="22" cy="26" r="2" fill="#374151"/>
    <circle cx="10" cy="26" r="1" fill="#6b7280"/>
    <circle cx="22" cy="26" r="1" fill="#6b7280"/>
    
    <!-- Motion lines -->
    <path d="M2 8 L6 8 M1 9.5 L5 9.5 M2 11 L6 11" stroke="#f59e0b" stroke-width="1" stroke-linecap="round" opacity="0.7"/>
</svg>
